<svg xmlns="http://www.w3.org/2000/svg" viewBox="0 0 500 300" role="img" aria-labelledby="title desc">
  <title id="title">Rugby pitch</title>
  <desc id="desc">A stylized rugby pitch with goal posts and a ball.</desc>
  <defs>
    <linearGradient id="grass" x1="0" x2="1" y1="0" y2="1">
      <stop offset="0" stop-color="#0f766e"/>
      <stop offset="1" stop-color="#16a34a"/>
    </linearGradient>
    <linearGradient id="sky" x1="0" x2="0" y1="0" y2="1">
      <stop offset="0" stop-color="#93c5fd"/>
      <stop offset="1" stop-color="#d1fae5"/>
    </linearGradient>
  </defs>
  <rect width="500" height="300" fill="url(#sky)"/>
  <path d="M0 112c76-22 162-24 258-6 94 17 174 13 242-12v206H0z" fill="url(#grass)"/>
  <g fill="none" stroke="#ecfdf5" stroke-opacity=".75" stroke-width="4">
    <path d="M44 230h412M75 171h350M250 112v188"/>
    <ellipse cx="250" cy="214" rx="82" ry="38"/>
    <path d="M82 106v72M50 106h64M418 94v80M386 94h64"/>
  </g>
  <ellipse cx="316" cy="217" rx="43" ry="22" fill="#7c2d12" transform="rotate(-13 316 217)"/>
  <path d="M277 226c22-18 50-25 80-18" fill="none" stroke="#fed7aa" stroke-width="4" stroke-linecap="round"/>
  <path d="M315 197l7 38" stroke="#fed7aa" stroke-width="3" stroke-linecap="round"/>
</svg>
