<svg xmlns="http://www.w3.org/2000/svg" viewBox="0 0 500 300" role="img" aria-labelledby="title desc">
  <title id="title">Rugby stadium</title>
  <desc id="desc">A stylized rugby ground with stands, lights, and field markings.</desc>
  <defs>
    <linearGradient id="night" x1="0" x2="1" y1="0" y2="1">
      <stop offset="0" stop-color="#0f172a"/>
      <stop offset="1" stop-color="#0369a1"/>
    </linearGradient>
    <linearGradient id="pitch" x1="0" x2="1" y1="0" y2="1">
      <stop offset="0" stop-color="#16a34a"/>
      <stop offset="1" stop-color="#065f46"/>
    </linearGradient>
  </defs>
  <rect width="500" height="300" fill="url(#night)"/>
  <g fill="#f8fafc" opacity=".9">
    <circle cx="70" cy="52" r="5"/><circle cx="88" cy="45" r="4"/><circle cx="410" cy="45" r="5"/><circle cx="430" cy="58" r="4"/>
  </g>
  <path d="M34 107h432v68H34z" fill="#334155"/>
  <g fill="#e2e8f0">
    <rect x="56" y="122" width="30" height="16"/><rect x="97" y="122" width="30" height="16"/><rect x="138" y="122" width="30" height="16"/>
    <rect x="179" y="122" width="30" height="16"/><rect x="220" y="122" width="30" height="16"/><rect x="261" y="122" width="30" height="16"/>
    <rect x="302" y="122" width="30" height="16"/><rect x="343" y="122" width="30" height="16"/><rect x="384" y="122" width="30" height="16"/>
  </g>
  <path d="M0 190c117-32 222-42 316-28 64 9 126 3 184-17v155H0z" fill="url(#pitch)"/>
  <g stroke="#ecfdf5" stroke-opacity=".78" stroke-width="4" fill="none">
    <path d="M44 238h412M84 194h332M250 164v136"/>
    <ellipse cx="250" cy="229" rx="84" ry="34"/>
    <path d="M82 144v58M55 144h54M418 137v62M391 137h54"/>
  </g>
  <g stroke="#fef3c7" stroke-width="5" stroke-linecap="round" opacity=".9">
    <path d="M74 48L32 166M426 48l42 118"/>
  </g>
</svg>
